<mxfile host="app.diagrams.net" modified="2023-09-27T13:06:34.427Z" agent="Mozilla/5.0 (Macintosh; Intel Mac OS X 10_15_7) AppleWebKit/537.36 (KHTML, like Gecko) Chrome/117.0.0.0 Safari/537.36" version="21.8.2" etag="IFwRWIFzcFm_KQTzlrnP" type="github">
  <diagram name="Page-1" id="LF_XqEVOaPdI56FDLNr_">
    <mxGraphModel>
      <root>
        <mxCell id="0" />
        <mxCell id="1" parent="0" />
      </root>
    </mxGraphModel>
  </diagram>
</mxfile>
